# xmcd
#
# Track frame offsets:
#	150
#	21097
#	46345
#	63700
#	82682
#	101995
#	118375
#	138910
#	158320
#	177157
#	195972
#
# Disc length: 2843 seconds
#
# Revision: 1
# Processed by: cddbd v1.4PL0 Copyright (c) Steve Scherf et al.
# Submitted via: audiograbber 1.80
#
DISCID=870b190b
DTITLE=신승훈 - Shin Seung Hun 6th
DYEAR=1997
DGENRE=
TTITLE0=지킬수 없는 약속
TTITLE1=고개숙인 너에게
TTITLE2=세상에서 가장 아름다운 사랑
TTITLE3=무너진 사랑앞에서
TTITLE4=우연한 만남
TTITLE5=오래된 사랑의 끝
TTITLE6=인연
TTITLE7=실수
TTITLE8=꿈속의 그대
TTITLE9=나의 하루
TTITLE10=오래된 사랑의 끝(Bonus Disco Version)
EXTD=YEAR: 1997
EXTT0=
EXTT1=
EXTT2=
EXTT3=
EXTT4=
EXTT5=
EXTT6=
EXTT7=
EXTT8=
EXTT9=
EXTT10=
PLAYORDER=
